<?xml version="1.0" encoding="UTF-8"?>
<svg id="Layer_2" xmlns="http://www.w3.org/2000/svg" xmlns:xlink="http://www.w3.org/1999/xlink" version="1.1" viewBox="0 0 1080 1080">
  <!-- Generator: Adobe Illustrator 29.0.1, SVG Export Plug-In . SVG Version: 2.1.0 Build 192)  -->
  <defs>
    <style>
      .st0 {
        fill: url(#linear-gradient24);
      }

      .st0, .st1, .st2, .st3, .st4, .st5, .st6, .st7, .st8, .st9, .st10, .st11, .st12, .st13, .st14, .st15 {
        fill-rule: evenodd;
      }

      .st1 {
        fill: url(#linear-gradient25);
      }

      .st2 {
        fill: url(#linear-gradient21);
      }

      .st3 {
        fill: url(#linear-gradient20);
      }

      .st4 {
        fill: url(#linear-gradient22);
      }

      .st5 {
        fill: url(#linear-gradient23);
      }

      .st6 {
        fill: url(#linear-gradient19);
      }

      .st7 {
        fill: url(#linear-gradient18);
      }

      .st16 {
        fill: url(#linear-gradient9);
      }

      .st17 {
        fill: url(#linear-gradient8);
      }

      .st18 {
        fill: #1371b7;
      }

      .st19 {
        fill: url(#linear-gradient13);
      }

      .st20 {
        fill: url(#linear-gradient12);
      }

      .st21 {
        fill: url(#linear-gradient15);
      }

      .st22 {
        fill: url(#linear-gradient16);
      }

      .st23 {
        fill: url(#linear-gradient11);
      }

      .st24 {
        fill: url(#linear-gradient10);
      }

      .st25 {
        fill: url(#linear-gradient17);
      }

      .st26 {
        fill: url(#linear-gradient14);
      }

      .st27 {
        fill: #0c4266;
      }

      .st28 {
        fill: #fff;
      }

      .st8 {
        fill: url(#linear-gradient);
      }

      .st9 {
        fill: url(#linear-gradient1);
      }

      .st10 {
        fill: url(#linear-gradient2);
      }

      .st11 {
        fill: url(#linear-gradient7);
      }

      .st12 {
        fill: url(#linear-gradient4);
      }

      .st13 {
        fill: url(#linear-gradient5);
      }

      .st14 {
        fill: url(#linear-gradient3);
      }

      .st15 {
        fill: url(#linear-gradient6);
      }
    </style>
    <linearGradient id="linear-gradient" x1="500.41" y1="790.45" x2="834.28" y2="790.45" gradientUnits="userSpaceOnUse">
      <stop offset="0" stop-color="#2cd1fe"/>
      <stop offset="1" stop-color="#0c4266"/>
    </linearGradient>
    <linearGradient id="linear-gradient1" x1="914.83" y1="854.43" x2="486.62" y2="308.8" gradientUnits="userSpaceOnUse">
      <stop offset="0" stop-color="#9700e9"/>
      <stop offset="1" stop-color="#3c0074"/>
    </linearGradient>
    <linearGradient id="linear-gradient2" x1="495.21" y1="187.02" x2="389.86" y2="727.57" xlink:href="#linear-gradient"/>
    <linearGradient id="linear-gradient3" x1="675.57" y1="3395.39" x2="1153.35" y2="3104.47" gradientTransform="translate(2054.65 -2348.98) rotate(43.64)" gradientUnits="userSpaceOnUse">
      <stop offset="0" stop-color="#ea9c06"/>
      <stop offset="1" stop-color="#f74217"/>
    </linearGradient>
    <linearGradient id="linear-gradient4" x1="2053.18" y1="-571.78" x2="2400.01" y2="-571.78" xlink:href="#linear-gradient"/>
    <linearGradient id="linear-gradient5" x1="2483.69" y1="-505.32" x2="2038.86" y2="-1072.12" xlink:href="#linear-gradient1"/>
    <linearGradient id="linear-gradient6" x1="2047.79" y1="-1198.62" x2="1938.35" y2="-637.1" xlink:href="#linear-gradient"/>
    <linearGradient id="linear-gradient7" x1="845.07" y1="1339.93" x2="1341.39" y2="1037.72" xlink:href="#linear-gradient3"/>
    <linearGradient id="linear-gradient8" x1="2849.12" y1="537.82" x2="3115.78" y2="537.82" xlink:href="#linear-gradient1"/>
    <linearGradient id="linear-gradient9" x1="3111.86" y1="587.06" x2="3308.81" y2="587.06" xlink:href="#linear-gradient1"/>
    <linearGradient id="linear-gradient10" x1="3337.56" y1="555.25" x2="3506.19" y2="555.25" xlink:href="#linear-gradient1"/>
    <linearGradient id="linear-gradient11" x1="3518.83" y1="584.88" x2="3736.69" y2="584.88" xlink:href="#linear-gradient1"/>
    <linearGradient id="linear-gradient12" x1="3781.57" y1="582.05" x2="3921.87" y2="582.05" xlink:href="#linear-gradient1"/>
    <linearGradient id="linear-gradient13" x1="3938.44" y1="584.88" x2="4119.26" y2="584.88" xlink:href="#linear-gradient1"/>
    <linearGradient id="linear-gradient14" x1="4168.06" y1="537.82" x2="4406.84" y2="537.82" xlink:href="#linear-gradient1"/>
    <linearGradient id="linear-gradient15" x1="4446.93" y1="540" x2="4553.24" y2="540" xlink:href="#linear-gradient1"/>
    <linearGradient id="linear-gradient16" x1="4576.33" y1="584.88" x2="4768.92" y2="584.88" xlink:href="#linear-gradient1"/>
    <linearGradient id="linear-gradient17" x1="4824.26" y1="582.7" x2="5023.83" y2="582.7" xlink:href="#linear-gradient1"/>
    <linearGradient id="linear-gradient18" x1="2310.9" y1="800.16" x2="2657.72" y2="800.16" xlink:href="#linear-gradient"/>
    <linearGradient id="linear-gradient19" x1="2741.4" y1="866.63" x2="2296.57" y2="299.83" xlink:href="#linear-gradient1"/>
    <linearGradient id="linear-gradient20" x1="2305.5" y1="173.32" x2="2196.06" y2="734.85" xlink:href="#linear-gradient"/>
    <linearGradient id="linear-gradient21" x1="1978.35" y1="2154.98" x2="2474.67" y2="1852.78" xlink:href="#linear-gradient3"/>
    <linearGradient id="linear-gradient22" x1="502.41" y1="-566.1" x2="836.28" y2="-566.1" xlink:href="#linear-gradient"/>
    <linearGradient id="linear-gradient23" x1="916.83" y1="-502.12" x2="488.62" y2="-1047.75" xlink:href="#linear-gradient1"/>
    <linearGradient id="linear-gradient24" x1="497.21" y1="-1169.52" x2="391.86" y2="-628.98" xlink:href="#linear-gradient"/>
    <linearGradient id="linear-gradient25" x1="-259.13" y1="2412.25" x2="218.65" y2="2121.34" xlink:href="#linear-gradient3"/>
  </defs>
  <g>
    <path class="st8" d="M722.22,866.27l-94.83.2c-1.98,0-4.16-.2-6.14-.4-66.12-5.94-64.14-109.08,6.14-109.08h124.52c32.27,0,34.05-17.22,21.78-42.56,55.83,98.79,14.85,135.41-51.47,151.84h0Z"/>
    <path class="st9" d="M694.11,315.92c6.53,11.68,12.47,23.36,17.82,34.25l183.71,376.53c44.34,90.87-23.76,139.17-110.47,139.37l-62.95.2c66.32-16.43,107.3-53.06,51.47-151.84-53.65-111.06-106.9-224.1-162.93-333.18-9.9-19-21.58-39.59-34.64-56.02-16.23-20.19-36.82-24.55-56.02-4.95-.99,1.19-2.18,2.38-3.37,3.56h0c64.54-80.37,129.67-61.57,177.38-7.92h0Z"/>
    <path class="st10" d="M172.13,744.48c-5.16-36.76,2.98-65.77,7.86-82.51,10.01-34.33,25.93-59.06,35.44-73.84,54.64-84.93,109.28-169.86,163.92-254.98,37.02-57.81,94.83-137.98,172.03-135.61,66.12,2.18,111.46,62.16,142.73,118.38-47.71-53.65-112.84-72.46-177.38,7.92-20.98,22.57-43.35,55.83-49.69,65.73-54.64,84.93-109.28,170.05-163.92,254.98-9.5,14.85-19.99,35.24-25.54,56.42-7.32,28.71-5.94,58.4,19,76.61,16.23,11.68,37.22,13.07,56.02,7.92,19.8-5.74,36.82-18.01,51.08-33.06-44.94,75.51-124.47,101.88-169.43,79.31-19.6-9.84-51.73-38.57-60.37-77-.87-3.85-1.29-6.9-1.77-10.27Z"/>
    <path class="st14" d="M732.31,641.61c-9.73-.75-17.81-7.82-20.25-17.27l-4.56-17.67c-1.26-4.87-2.79-9.62-4.59-14.23-56.56,59.54-180.45,189.73-199.52,210.04-41,43.51-94.38,75.69-154.91,79.65-51.49,3.24-102.49-14.87-137.37-53.63-29.52-32.58-43.22-76.49-40.33-118.05,5.15,108.35,116.9,147.24,227.66,45.87,5.34-3.72,10.46-7.79,15.31-12.07,4.86-4.29,9.45-8.79,13.76-13.33,16.62-17.7,145.65-153.27,200.63-211.17-4.93-1.77-10.02-3.24-15.22-4.39l-20.17-4.47c-9.05-2-16.24-9.16-17.76-18.31-2.37-14.33,6.16-29.66,22.21-33.46l172.46-40.84c15.12-3.58,28.93,9.56,26.11,24.84l-32.25,174.52c-2.92,15.81-17.14,25.02-31.22,23.95Z"/>
  </g>
  <g>
    <g>
      <path class="st28" d="M2696.85-680.53v-260.57h-105.45v-46.62h266.67v46.62h-105.45v260.57h-55.77Z"/>
      <path class="st28" d="M2932.58-676.17c-52.29,0-78.43-29.34-78.43-88.02v-129.41h54.47v130.28c0,15.11,3.05,26.29,9.15,33.55,6.1,7.26,15.83,10.89,29.19,10.89,14.52,0,26.43-5.01,35.73-15.03,9.29-10.02,13.94-23.31,13.94-39.87v-119.83h54.47v213.07h-53.16v-31.81c-14.24,24.11-36.02,36.16-65.36,36.16Z"/>
      <path class="st28" d="M3205.34-676.17c-56.36,0-84.53-27.89-84.53-83.66v-92.81h-40.96v-40.96h40.96v-63.62h54.47v63.62h64.49v40.96h-64.49v89.76c0,13.94,3.05,24.4,9.15,31.37,6.1,6.97,15.97,10.46,29.63,10.46,4.07,0,8.28-.5,12.64-1.52,4.36-1.02,8.86-2.1,13.51-3.27l8.28,40.09c-5.23,2.91-11.84,5.23-19.83,6.97-7.99,1.74-15.76,2.61-23.31,2.61Z"/>
      <path class="st28" d="M3370.05-676.17c-22.08,0-41.25-4.5-57.52-13.51-16.27-9-28.91-21.85-37.91-38.56-9.01-16.7-13.51-36.38-13.51-59.04s4.5-42.27,13.51-58.82c9-16.56,21.64-29.34,37.91-38.34,16.27-9,35.44-13.51,57.52-13.51s41.24,4.51,57.52,13.51c16.27,9.01,28.9,21.79,37.91,38.34,9,16.56,13.51,36.17,13.51,58.82s-4.51,42.34-13.51,59.04c-9.01,16.71-21.64,29.56-37.91,38.56-16.27,9.01-35.44,13.51-57.52,13.51ZM3370.05-717.56c16.26,0,29.34-5.88,39.22-17.65,9.87-11.76,14.82-29.12,14.82-52.07s-4.94-40.59-14.82-52.07c-9.88-11.47-22.95-17.21-39.22-17.21s-29.34,5.74-39.22,17.21c-9.88,11.48-14.81,28.83-14.81,52.07s4.94,40.31,14.81,52.07c9.87,11.76,22.94,17.65,39.22,17.65Z"/>
      <path class="st28" d="M3523.86-680.53v-213.07h53.16v37.47c10.46-25.27,32.82-39.22,67.1-41.83l16.56-1.31,3.49,46.19-31.37,3.05c-35.73,3.49-53.59,21.78-53.59,54.9v114.6h-55.34Z"/>
      <path class="st28" d="M3770.49-676.17c-18.02,0-34.86-2.18-50.54-6.54-15.69-4.36-28.76-10.6-39.22-18.74l13.94-35.73c10.74,7.26,22.8,12.85,36.16,16.78,13.36,3.92,26.72,5.88,40.09,5.88s24.33-2.4,31.15-7.19c6.82-4.79,10.24-11.11,10.24-18.95,0-12.2-9.01-20.04-27.02-23.53l-43.57-8.28c-36.89-6.97-55.34-26.14-55.34-57.52,0-13.94,3.85-26,11.55-36.17,7.69-10.16,18.37-18.01,32.03-23.53,13.65-5.52,29.34-8.28,47.06-8.28,15.1,0,29.63,2.11,43.57,6.32,13.94,4.21,25.85,10.53,35.73,18.95l-14.81,35.73c-8.43-6.97-18.52-12.49-30.28-16.56-11.77-4.06-23.03-6.1-33.77-6.1-14.24,0-24.77,2.47-31.59,7.41-6.83,4.94-10.24,11.48-10.24,19.61,0,12.79,8.28,20.63,24.84,23.53l43.57,8.28c18.88,3.49,33.18,9.88,42.92,19.17,9.73,9.3,14.59,21.79,14.59,37.47,0,21.21-8.28,37.84-24.84,49.89-16.56,12.06-38.63,18.08-66.23,18.08Z"/>
      <path class="st28" d="M3910.35-680.53v-307.19h133.33c33.69,0,59.7,8.43,78,25.27,18.3,16.85,27.45,40.38,27.45,70.59s-9.15,53.81-27.45,70.81c-18.3,16.99-44.3,25.49-78,25.49h-77.56v115.03h-55.77ZM3966.12-839.57h68.85c40.09,0,60.13-17.43,60.13-52.29s-20.04-51.85-60.13-51.85h-68.85v104.14Z"/>
      <path class="st28" d="M4263.29-676.17c-25.27,0-43.94-6.9-55.99-20.7-12.06-13.79-18.08-34.06-18.08-60.78v-230.07h54.47v227.45c0,26.14,11.04,39.22,33.11,39.22,3.19,0,6.38-.14,9.59-.43,3.19-.29,6.24-.87,9.15-1.74l-.87,43.14c-10.46,2.62-20.92,3.92-31.37,3.92Z"/>
      <path class="st28" d="M4398.36-676.17c-15.4,0-29.13-2.98-41.18-8.93-12.06-5.95-21.5-14.01-28.33-24.18-6.83-10.17-10.24-21.64-10.24-34.42,0-15.69,4.07-28.11,12.2-37.26,8.13-9.15,21.35-15.75,39.65-19.82,18.3-4.07,42.85-6.1,73.64-6.1h15.25v-9.15c0-14.52-3.2-24.98-9.59-31.37-6.39-6.38-17.14-9.59-32.24-9.59-11.92,0-24.12,1.82-36.6,5.45-12.49,3.64-25.13,9.23-37.91,16.78l-15.69-37.04c7.55-5.23,16.48-9.8,26.8-13.73,10.31-3.92,21.2-6.97,32.68-9.15,11.47-2.18,22.29-3.27,32.46-3.27,31.08,0,54.17,7.19,69.28,21.57,15.1,14.38,22.66,36.68,22.66,66.88v128.98h-50.98v-33.99c-4.94,11.91-12.78,21.28-23.53,28.1-10.75,6.82-23.53,10.24-38.34,10.24ZM4409.69-713.64c14.23,0,26.07-4.93,35.52-14.81,9.44-9.87,14.16-22.37,14.16-37.47v-9.59h-14.81c-27.31,0-46.26,2.11-56.87,6.32-10.61,4.21-15.9,11.84-15.9,22.87,0,9.59,3.34,17.43,10.02,23.53,6.68,6.1,15.97,9.15,27.89,9.15Z"/>
      <path class="st28" d="M4566.55-680.53v-213.07h53.16v33.12c7.26-12.2,17.06-21.49,29.41-27.89,12.34-6.38,26.21-9.59,41.61-9.59,50.25,0,75.38,29.19,75.38,87.58v129.85h-54.46v-127.23c0-16.56-3.12-28.61-9.37-36.16-6.25-7.55-15.9-11.33-28.98-11.33-15.98,0-28.69,5.01-38.13,15.03-9.45,10.02-14.16,23.31-14.16,39.87v119.83h-54.47Z"/>
    </g>
    <g>
      <path class="st12" d="M2283.61-493.01l-98.51.21c-2.06,0-4.32-.21-6.38-.41-68.69-6.17-66.63-113.31,6.38-113.31h129.35c33.52,0,35.37-17.89,22.62-44.21,57.99,102.62,15.42,140.66-53.47,157.73h0Z"/>
      <path class="st13" d="M2254.41-1064.72c6.79,12.13,12.96,24.27,18.51,35.58l190.84,391.15c46.07,94.39-24.68,144.57-114.75,144.78l-65.4.21c68.89-17.07,111.46-55.11,53.47-157.73-55.73-115.37-111.05-232.8-169.25-346.11-10.28-19.74-22.42-41.13-35.99-58.2-16.86-20.98-38.25-25.5-58.2-5.14-1.03,1.23-2.26,2.47-3.5,3.7h0c67.04-83.49,134.7-63.96,184.26-8.23h0Z"/>
      <path class="st15" d="M1712.16-619.53c-5.36-38.18,3.1-68.32,8.17-85.71,10.4-35.66,26.93-61.36,36.81-76.71,56.76-88.22,113.52-176.45,170.28-264.88,38.46-60.05,98.51-143.34,178.71-140.87,68.69,2.26,115.78,64.57,148.27,122.98-49.56-55.73-117.22-75.27-184.26,8.23-21.8,23.44-45.04,57.99-51.62,68.28-56.76,88.22-113.52,176.65-170.28,264.88-9.87,15.42-20.77,36.61-26.53,58.61-7.61,29.82-6.17,60.67,19.74,79.59,16.86,12.13,38.66,13.57,58.2,8.23,20.57-5.96,38.25-18.71,53.06-34.34-46.68,78.44-129.3,105.84-176.01,82.39-20.37-10.22-53.73-40.07-62.71-79.99-.9-4-1.34-7.17-1.83-10.67Z"/>
      <path class="st11" d="M2294.09-726.38c-10.11-.78-18.5-8.12-21.03-17.94l-4.73-18.35c-1.31-5.06-2.9-9.99-4.77-14.78-58.76,61.86-187.45,197.1-207.26,218.19-42.59,45.2-98.04,78.63-160.92,82.74-53.49,3.37-106.47-15.44-142.7-55.71-30.66-33.84-44.89-79.46-41.89-122.63,5.35,112.55,121.44,152.96,236.49,47.65,5.55-3.86,10.86-8.1,15.9-12.54,5.05-4.45,9.81-9.13,14.3-13.85,17.27-18.39,151.31-159.22,208.42-219.36-5.12-1.84-10.4-3.37-15.81-4.56l-20.95-4.64c-9.4-2.08-16.87-9.52-18.45-19.02-2.47-14.89,6.4-30.81,23.07-34.76l179.15-42.42c15.7-3.72,30.05,9.93,27.12,25.81l-33.5,181.29c-3.03,16.42-17.81,25.99-32.44,24.88Z"/>
    </g>
  </g>
  <g>
    <g>
      <path class="st17" d="M2954.56,691.42v-260.57h-105.45v-46.62h266.67v46.62h-105.45v260.57h-55.77Z"/>
      <path class="st16" d="M3190.29,695.77c-52.29,0-78.43-29.34-78.43-88.02v-129.41h54.47v130.28c0,15.11,3.05,26.29,9.15,33.55,6.1,7.26,15.83,10.89,29.19,10.89,14.52,0,26.43-5.01,35.73-15.03,9.29-10.02,13.94-23.31,13.94-39.87v-119.83h54.47v213.07h-53.16v-31.81c-14.24,24.11-36.02,36.16-65.36,36.16Z"/>
      <path class="st24" d="M3463.06,695.77c-56.36,0-84.53-27.89-84.53-83.66v-92.81h-40.96v-40.96h40.96v-63.62h54.47v63.62h64.49v40.96h-64.49v89.76c0,13.94,3.05,24.4,9.15,31.37,6.1,6.97,15.97,10.46,29.63,10.46,4.07,0,8.28-.5,12.64-1.52,4.36-1.02,8.86-2.1,13.51-3.27l8.28,40.09c-5.23,2.91-11.84,5.23-19.83,6.97-7.99,1.74-15.76,2.61-23.31,2.61Z"/>
      <path class="st23" d="M3627.76,695.77c-22.08,0-41.25-4.5-57.52-13.51-16.27-9-28.91-21.85-37.91-38.56-9.01-16.7-13.51-36.38-13.51-59.04s4.5-42.27,13.51-58.82c9-16.56,21.64-29.34,37.91-38.34,16.27-9,35.44-13.51,57.52-13.51s41.24,4.51,57.52,13.51c16.27,9.01,28.9,21.79,37.91,38.34,9,16.56,13.51,36.17,13.51,58.82s-4.51,42.34-13.51,59.04c-9.01,16.71-21.64,29.56-37.91,38.56-16.27,9.01-35.44,13.51-57.52,13.51ZM3627.76,654.38c16.26,0,29.34-5.88,39.22-17.65,9.87-11.76,14.82-29.12,14.82-52.07s-4.94-40.59-14.82-52.07c-9.88-11.47-22.95-17.21-39.22-17.21s-29.34,5.74-39.22,17.21c-9.88,11.48-14.81,28.83-14.81,52.07s4.94,40.31,14.81,52.07c9.87,11.76,22.94,17.65,39.22,17.65Z"/>
      <path class="st20" d="M3781.57,691.42v-213.07h53.16v37.47c10.46-25.27,32.82-39.22,67.1-41.83l16.56-1.31,3.49,46.19-31.37,3.05c-35.73,3.49-53.59,21.78-53.59,54.9v114.6h-55.34Z"/>
      <path class="st19" d="M4028.2,695.77c-18.02,0-34.86-2.18-50.54-6.54-15.69-4.36-28.76-10.6-39.22-18.74l13.94-35.73c10.74,7.26,22.8,12.85,36.16,16.78,13.36,3.92,26.72,5.88,40.09,5.88s24.33-2.4,31.15-7.19c6.82-4.79,10.24-11.11,10.24-18.95,0-12.2-9.01-20.04-27.02-23.53l-43.57-8.28c-36.89-6.97-55.34-26.14-55.34-57.52,0-13.94,3.85-26,11.55-36.17,7.69-10.16,18.37-18.01,32.03-23.53,13.65-5.52,29.34-8.28,47.06-8.28,15.1,0,29.63,2.11,43.57,6.32,13.94,4.21,25.85,10.53,35.73,18.95l-14.81,35.73c-8.43-6.97-18.52-12.49-30.28-16.56-11.77-4.06-23.03-6.1-33.77-6.1-14.24,0-24.77,2.47-31.59,7.41-6.83,4.94-10.24,11.48-10.24,19.61,0,12.79,8.28,20.63,24.84,23.53l43.57,8.28c18.88,3.49,33.18,9.88,42.92,19.17,9.73,9.3,14.59,21.79,14.59,37.47,0,21.21-8.28,37.84-24.84,49.89-16.56,12.06-38.63,18.08-66.23,18.08Z"/>
      <path class="st26" d="M4168.06,691.42v-307.19h133.33c33.69,0,59.7,8.43,78,25.27,18.3,16.85,27.45,40.38,27.45,70.59s-9.15,53.81-27.45,70.81c-18.3,16.99-44.3,25.49-78,25.49h-77.56v115.03h-55.77ZM4223.83,532.38h68.85c40.09,0,60.13-17.43,60.13-52.29s-20.04-51.85-60.13-51.85h-68.85v104.14Z"/>
      <path class="st21" d="M4521,695.77c-25.27,0-43.94-6.9-55.99-20.7-12.06-13.79-18.08-34.06-18.08-60.78v-230.07h54.47v227.45c0,26.14,11.04,39.22,33.11,39.22,3.19,0,6.38-.14,9.59-.43,3.19-.29,6.24-.87,9.15-1.74l-.87,43.14c-10.46,2.62-20.92,3.92-31.37,3.92Z"/>
      <path class="st22" d="M4656.07,695.77c-15.4,0-29.13-2.98-41.18-8.93-12.06-5.95-21.5-14.01-28.33-24.18-6.83-10.17-10.24-21.64-10.24-34.42,0-15.69,4.07-28.11,12.2-37.26,8.13-9.15,21.35-15.75,39.65-19.82,18.3-4.07,42.85-6.1,73.64-6.1h15.25v-9.15c0-14.52-3.2-24.98-9.59-31.37-6.39-6.38-17.14-9.59-32.24-9.59-11.92,0-24.12,1.82-36.6,5.45-12.49,3.64-25.13,9.23-37.91,16.78l-15.69-37.04c7.55-5.23,16.48-9.8,26.8-13.73,10.31-3.92,21.2-6.97,32.68-9.15,11.47-2.18,22.29-3.27,32.46-3.27,31.08,0,54.17,7.19,69.28,21.57,15.1,14.38,22.66,36.68,22.66,66.88v128.98h-50.98v-33.99c-4.94,11.91-12.78,21.28-23.53,28.1-10.75,6.82-23.53,10.24-38.34,10.24ZM4667.4,658.3c14.23,0,26.07-4.93,35.52-14.81,9.44-9.87,14.16-22.37,14.16-37.47v-9.59h-14.81c-27.31,0-46.26,2.11-56.87,6.32-10.61,4.21-15.9,11.84-15.9,22.87,0,9.59,3.34,17.43,10.02,23.53,6.68,6.1,15.97,9.15,27.89,9.15Z"/>
      <path class="st25" d="M4824.26,691.42v-213.07h53.16v33.12c7.26-12.2,17.06-21.49,29.41-27.89,12.34-6.38,26.21-9.59,41.61-9.59,50.25,0,75.38,29.19,75.38,87.58v129.85h-54.46v-127.23c0-16.56-3.12-28.61-9.37-36.16-6.25-7.55-15.9-11.33-28.98-11.33-15.98,0-28.69,5.01-38.13,15.03-9.45,10.02-14.16,23.31-14.16,39.87v119.83h-54.47Z"/>
    </g>
    <g>
      <path class="st7" d="M2541.32,878.93l-98.51.21c-2.06,0-4.32-.21-6.38-.41-68.69-6.17-66.63-113.31,6.38-113.31h129.35c33.52,0,35.37-17.89,22.62-44.21,57.99,102.62,15.42,140.66-53.47,157.73h0Z"/>
      <path class="st6" d="M2512.12,307.22c6.79,12.13,12.96,24.27,18.51,35.58l190.84,391.15c46.07,94.39-24.68,144.57-114.75,144.78l-65.4.21c68.89-17.07,111.46-55.11,53.47-157.73-55.73-115.37-111.05-232.8-169.25-346.11-10.28-19.74-22.42-41.13-35.99-58.2-16.86-20.98-38.25-25.5-58.2-5.14-1.03,1.23-2.26,2.47-3.5,3.7h0c67.04-83.49,134.7-63.96,184.26-8.23h0Z"/>
      <path class="st3" d="M1969.88,752.41c-5.36-38.18,3.1-68.32,8.17-85.71,10.4-35.66,26.93-61.36,36.81-76.71,56.76-88.22,113.52-176.45,170.28-264.88,38.46-60.05,98.51-143.34,178.71-140.87,68.69,2.26,115.78,64.57,148.27,122.98-49.56-55.73-117.22-75.27-184.26,8.23-21.8,23.44-45.04,57.99-51.62,68.28-56.76,88.22-113.52,176.65-170.28,264.88-9.87,15.42-20.77,36.61-26.53,58.61-7.61,29.82-6.17,60.67,19.74,79.59,16.86,12.13,38.66,13.57,58.2,8.23,20.57-5.96,38.25-18.71,53.06-34.34-46.68,78.44-129.3,105.84-176.01,82.39-20.37-10.22-53.73-40.07-62.71-79.99-.9-4-1.34-7.17-1.83-10.67Z"/>
      <path class="st2" d="M2551.8,645.56c-10.11-.78-18.5-8.12-21.03-17.94l-4.73-18.35c-1.31-5.06-2.9-9.99-4.77-14.78-58.76,61.86-187.45,197.1-207.26,218.19-42.59,45.2-98.04,78.63-160.92,82.74-53.49,3.37-106.47-15.44-142.7-55.71-30.66-33.84-44.89-79.46-41.89-122.63,5.35,112.55,121.44,152.96,236.49,47.65,5.55-3.86,10.86-8.1,15.9-12.54,5.05-4.45,9.81-9.13,14.3-13.85,17.27-18.39,151.31-159.22,208.42-219.36-5.12-1.84-10.4-3.37-15.81-4.56l-20.95-4.64c-9.4-2.08-16.87-9.52-18.45-19.02-2.47-14.89,6.4-30.81,23.07-34.76l179.15-42.42c15.7-3.72,30.05,9.93,27.12,25.81l-33.5,181.29c-3.03,16.42-17.81,25.99-32.44,24.88Z"/>
    </g>
  </g>
  <g>
    <g>
      <path class="st4" d="M724.22-490.28l-94.83.2c-1.98,0-4.16-.2-6.14-.4-66.12-5.94-64.14-109.08,6.14-109.08h124.52c32.27,0,34.05-17.22,21.78-42.56,55.83,98.79,14.85,135.41-51.47,151.84h0Z"/>
      <path class="st5" d="M696.11-1040.63c6.53,11.68,12.47,23.36,17.82,34.25l183.71,376.53c44.34,90.87-23.76,139.17-110.47,139.37l-62.95.2c66.32-16.43,107.3-53.06,51.47-151.84-53.65-111.06-106.9-224.1-162.93-333.18-9.9-19-21.58-39.59-34.64-56.02-16.23-20.19-36.82-24.55-56.02-4.95-.99,1.19-2.18,2.38-3.37,3.56h0c64.54-80.37,129.67-61.57,177.38-7.92h0Z"/>
      <path class="st0" d="M174.13-612.07c-5.16-36.76,2.98-65.77,7.86-82.51,10.01-34.33,25.93-59.06,35.44-73.84,54.64-84.93,109.28-169.86,163.92-254.98,37.02-57.81,94.83-137.98,172.03-135.61,66.12,2.18,111.46,62.16,142.73,118.38-47.71-53.65-112.84-72.46-177.38,7.92-20.98,22.57-43.35,55.83-49.69,65.73-54.64,84.93-109.28,170.05-163.92,254.98-9.5,14.85-19.99,35.24-25.54,56.42-7.32,28.71-5.94,58.4,19,76.61,16.23,11.68,37.22,13.07,56.02,7.92,19.8-5.74,36.82-18.01,51.08-33.06-44.94,75.51-124.47,101.88-169.43,79.31-19.6-9.84-51.73-38.57-60.37-77-.87-3.85-1.29-6.9-1.77-10.27Z"/>
      <path class="st1" d="M734.31-714.93c-9.73-.75-17.81-7.82-20.25-17.27l-4.56-17.67c-1.26-4.87-2.79-9.62-4.59-14.23-56.56,59.54-180.45,189.73-199.52,210.04-41,43.51-94.38,75.69-154.91,79.65-51.49,3.24-102.49-14.87-137.37-53.63-29.52-32.58-43.22-76.49-40.33-118.05,5.15,108.35,116.9,147.24,227.66,45.87,5.34-3.72,10.46-7.79,15.31-12.07,4.86-4.29,9.45-8.79,13.76-13.33,16.62-17.7,145.65-153.27,200.63-211.17-4.93-1.77-10.02-3.24-15.22-4.39l-20.17-4.47c-9.05-2-16.24-9.16-17.76-18.31-2.37-14.33,6.16-29.66,22.21-33.46l172.46-40.84c15.12-3.58,28.93,9.56,26.11,24.84l-32.25,174.52c-2.92,15.81-17.14,25.02-31.22,23.95Z"/>
    </g>
    <g>
      <path class="st27" d="M192.39-315.26v-92.24h-37.33v-16.5h94.4v16.5h-37.33v92.24h-19.74Z"/>
      <path class="st27" d="M275.84-313.72c-18.51,0-27.77-10.39-27.77-31.16v-45.81h19.28v46.12c0,5.35,1.08,9.31,3.24,11.88,2.16,2.57,5.6,3.86,10.34,3.86,5.14,0,9.36-1.77,12.65-5.32,3.29-3.55,4.94-8.25,4.94-14.11v-42.42h19.28v75.43h-18.82v-11.26c-5.04,8.54-12.75,12.8-23.14,12.8Z"/>
      <path class="st27" d="M372.4-313.72c-19.95,0-29.93-9.87-29.93-29.62v-32.86h-14.5v-14.5h14.5v-22.52h19.28v22.52h22.83v14.5h-22.83v31.78c0,4.94,1.08,8.64,3.24,11.11,2.16,2.47,5.65,3.7,10.49,3.7,1.44,0,2.93-.18,4.47-.54,1.54-.36,3.14-.74,4.78-1.16l2.93,14.19c-1.85,1.03-4.19,1.85-7.02,2.47-2.83.62-5.58.93-8.25.93Z"/>
      <path class="st27" d="M430.71-313.72c-7.82,0-14.6-1.59-20.36-4.78-5.76-3.19-10.23-7.74-13.42-13.65-3.19-5.91-4.78-12.88-4.78-20.9s1.59-14.96,4.78-20.82c3.19-5.86,7.66-10.39,13.42-13.57,5.76-3.19,12.55-4.78,20.36-4.78s14.6,1.6,20.36,4.78c5.76,3.19,10.23,7.71,13.42,13.57,3.19,5.86,4.78,12.8,4.78,20.82s-1.6,14.99-4.78,20.9c-3.19,5.91-7.66,10.46-13.42,13.65-5.76,3.19-12.55,4.78-20.36,4.78ZM430.71-328.38c5.76,0,10.39-2.08,13.88-6.25,3.49-4.16,5.24-10.31,5.24-18.43s-1.75-14.37-5.24-18.43c-3.5-4.06-8.12-6.09-13.88-6.09s-10.39,2.03-13.88,6.09c-3.5,4.06-5.24,10.21-5.24,18.43s1.75,14.27,5.24,18.43c3.49,4.16,8.12,6.25,13.88,6.25Z"/>
      <path class="st27" d="M485.16-315.26v-75.43h18.82v13.27c3.7-8.95,11.62-13.88,23.76-14.81l5.86-.46,1.23,16.35-11.11,1.08c-12.65,1.23-18.97,7.71-18.97,19.44v40.57h-19.59Z"/>
      <path class="st27" d="M572.47-313.72c-6.38,0-12.34-.77-17.89-2.31-5.55-1.54-10.18-3.75-13.88-6.63l4.94-12.65c3.8,2.57,8.07,4.55,12.8,5.94,4.73,1.39,9.46,2.08,14.19,2.08s8.61-.85,11.03-2.55c2.42-1.7,3.63-3.93,3.63-6.71,0-4.32-3.19-7.1-9.56-8.33l-15.43-2.93c-13.06-2.47-19.59-9.26-19.59-20.36,0-4.94,1.36-9.2,4.09-12.8,2.72-3.6,6.5-6.38,11.34-8.33,4.83-1.95,10.39-2.93,16.66-2.93,5.35,0,10.49.75,15.43,2.24,4.94,1.49,9.15,3.73,12.65,6.71l-5.24,12.65c-2.98-2.47-6.56-4.42-10.72-5.86-4.17-1.44-8.15-2.16-11.96-2.16-5.04,0-8.77.87-11.18,2.62-2.42,1.75-3.63,4.06-3.63,6.94,0,4.53,2.93,7.3,8.79,8.33l15.43,2.93c6.68,1.23,11.75,3.5,15.19,6.79,3.44,3.29,5.17,7.71,5.17,13.27,0,7.51-2.93,13.4-8.79,17.66-5.86,4.27-13.68,6.4-23.45,6.4Z"/>
      <path class="st18" d="M621.99-315.26v-108.75h47.2c11.93,0,21.13,2.98,27.61,8.95,6.48,5.97,9.72,14.29,9.72,24.99s-3.24,19.05-9.72,25.07c-6.48,6.02-15.68,9.02-27.61,9.02h-27.46v40.72h-19.74ZM641.73-371.57h24.37c14.19,0,21.29-6.17,21.29-18.51s-7.1-18.36-21.29-18.36h-24.37v36.87Z"/>
      <path class="st18" d="M746.93-313.72c-8.95,0-15.56-2.44-19.82-7.33-4.27-4.88-6.4-12.06-6.4-21.52v-81.45h19.28v80.52c0,9.26,3.91,13.88,11.72,13.88,1.13,0,2.26-.05,3.39-.15,1.13-.1,2.21-.31,3.24-.62l-.31,15.27c-3.7.93-7.4,1.39-11.11,1.39Z"/>
      <path class="st18" d="M794.75-313.72c-5.45,0-10.31-1.06-14.58-3.16-4.27-2.11-7.61-4.96-10.03-8.56-2.42-3.6-3.62-7.66-3.62-12.19,0-5.55,1.44-9.95,4.32-13.19,2.88-3.24,7.56-5.58,14.04-7.02,6.48-1.44,15.17-2.16,26.07-2.16h5.4v-3.24c0-5.14-1.13-8.84-3.39-11.11-2.26-2.26-6.07-3.39-11.41-3.39-4.22,0-8.54.64-12.96,1.93-4.42,1.29-8.9,3.27-13.42,5.94l-5.55-13.11c2.67-1.85,5.83-3.47,9.49-4.86,3.65-1.39,7.51-2.47,11.57-3.24,4.06-.77,7.89-1.16,11.49-1.16,11,0,19.18,2.55,24.53,7.64,5.35,5.09,8.02,12.98,8.02,23.68v45.66h-18.05v-12.03c-1.75,4.22-4.53,7.53-8.33,9.95-3.81,2.41-8.33,3.63-13.57,3.63ZM798.76-326.99c5.04,0,9.23-1.75,12.57-5.24,3.34-3.49,5.01-7.92,5.01-13.27v-3.39h-5.24c-9.67,0-16.38.75-20.13,2.24-3.75,1.49-5.63,4.19-5.63,8.1,0,3.39,1.18,6.17,3.55,8.33,2.36,2.16,5.65,3.24,9.87,3.24Z"/>
      <path class="st18" d="M854.29-315.26v-75.43h18.82v11.72c2.57-4.32,6.04-7.61,10.41-9.87,4.37-2.26,9.28-3.39,14.73-3.39,17.79,0,26.69,10.34,26.69,31v45.97h-19.28v-45.04c0-5.86-1.11-10.13-3.32-12.8-2.21-2.67-5.63-4.01-10.26-4.01-5.66,0-10.16,1.77-13.5,5.32-3.34,3.55-5.01,8.25-5.01,14.11v42.42h-19.28Z"/>
    </g>
  </g>
</svg>